<?xml version="1.0" encoding="UTF-8"?>
<svg id="Capa_2" data-name="Capa 2" xmlns="http://www.w3.org/2000/svg" viewBox="0 0 119.08 119.88">
  <defs>
    <style>
      .cls-1 {
        fill: #fff;
      }

      .cls-2 {
        fill: #04acf2;
      }

      .cls-3 {
        fill: #ffdc00;
      }
    </style>
  </defs>
  <g id="Capa_1-2" data-name="Capa 1">
    <g>
      <path d="M117.11,55.03l-23.12-35.09c-2.22-3.37-5.95-5.38-9.99-5.38h-48.96c-4.03,0-7.76,2.01-9.99,5.38L1.98,54.97c-3.18,4.82-2.46,11.21,1.7,15.21l48.26,46.34c2.33,2.24,5.31,3.36,8.28,3.36s6.05-1.16,8.4-3.47l46.9-46.28c4.05-4,4.72-10.34,1.59-15.09ZM23.48,61.55l16.92-25.68c.18-.27.48-.43.8-.43h10.29c-1.79,1.81-3.67,4.5-4.71,8.38h-4.7v24.02h3.9v16.41l-22.36-21.47c-.33-.32-.39-.83-.14-1.22ZM59.39,97.12l-2.98-2.86h7.21l-2.89,2.86c-.37.37-.96.37-1.34,0ZM95.47,62.82l-23.75,23.44v-18.43h5.78v-32.4h.33c.32,0,.62.16.8.43l16.96,25.74c.25.38.2.89-.13,1.21Z"/>
      <path class="cls-2" d="M112.76,59.07l-23.13-35.09c-1.19-1.81-3.22-2.9-5.39-2.9h-48.96c-2.17,0-4.2,1.09-5.39,2.9L6.81,59.01c-1.71,2.6-1.33,6.05.92,8.21l48.26,46.34c2.52,2.42,6.52,2.4,9.01-.06l46.9-46.28c2.19-2.16,2.55-5.58.86-8.15ZM99.59,66.28l-34.75,34.29c-2.49,2.46-6.49,2.48-9.01.06l-35.77-34.35c-2.25-2.16-2.63-5.61-.92-8.21l16.92-25.68c1.19-1.81,3.22-2.9,5.39-2.9h36.63c2.17,0,4.2,1.09,5.39,2.9l16.96,25.74c1.7,2.57,1.34,5.99-.86,8.15Z"/>
      <path class="cls-1" d="M70,60.94h-5.78v26.42h-10.75v-26.42h-3.9v-9.02h3.9v-1.02c0-4.36,1.24-7.67,3.71-9.94,2.47-2.26,6.1-3.4,10.87-3.4.8,0,1.38.02,1.76.06v9.21c-2.05-.13-3.5.17-4.34.89-.84.72-1.26,2.01-1.26,3.87v.32h5.78v9.02Z"/>
      <path d="M117.15,23.3l-14.89,5.99c-.42.18-.85.44-1.15.79-.83.98-3.02,6.48-3.62,8.03-1.08,2.77-1.9,5.68-2.84,8.5-.59.04-.76-.55-.97-.97-2.27-4.63-3.36-10.57-5.81-15.23-4.76-3.38-10.83-4.69-16.03-7.27l15.75-7.06C90.13,10.9,91.88,5.36,94.01,0c.75,0,1.25,1.5,1.51,2.05,1.68,3.51,2.75,7.6,4.42,11.12,1.66,3.49,2.66,3.4,5.99,5.02s7.19,2.82,10.43,4.46c.31.15.77.2.8.66Z"/>
      <path class="cls-3" d="M106.87,23.31l-8.14,3.27c-.23.1-.46.24-.63.43-.45.53-1.65,3.54-1.98,4.39-.59,1.52-1.04,3.1-1.55,4.64-.32.02-.42-.3-.53-.53-1.24-2.53-1.84-5.78-3.17-8.32-2.6-1.85-5.92-2.56-8.76-3.97l8.61-3.86c1.38-2.84,2.34-5.86,3.5-8.79.41,0,.68.82.82,1.12.92,1.92,1.5,4.15,2.42,6.07s1.45,1.86,3.27,2.74,3.93,1.54,5.7,2.44c.17.08.42.11.44.36Z"/>
    </g>
  </g>
</svg>