<?xml version="1.0" encoding="UTF-8"?>
<svg id="Capa_2" data-name="Capa 2" xmlns="http://www.w3.org/2000/svg" viewBox="0 0 62.68 63.03">
  <defs>
    <style>
      .cls-1 {
        fill: #fff;
      }

      .cls-2 {
        fill: #04acf2;
      }

      .cls-3 {
        fill: #ffdc00;
      }
    </style>
  </defs>
  <g id="Capa_1-2" data-name="Capa 1">
    <g>
      <g>
        <polygon points="62.68 13.2 51.4 28.05 62.52 41.74 46.31 39.01 42.86 50.65 34.57 41.87 13.92 50.9 25.01 34.47 7.02 28.77 24.84 22.38 17.43 6.24 34.8 15.33 46.31 0 46.62 17.24 62.68 13.2"/>
        <polygon class="cls-3" points="54.41 18.42 44.79 28.5 52.6 36.01 41.96 34.59 41.84 46.04 35.43 36.18 22.93 43.3 31.05 32.06 15.64 28.33 29.46 24.78 25.32 14.64 35.22 21.08 41.84 12.18 41.79 22.48 54.41 18.42"/>
      </g>
      <path d="M46.69,30.29c-2.42-6.48-7.27-7.45-9.95-7.45-3.2,0-6.21,1.17-8.99,3.48l.26-4.05-21.85,3.07L0,63.03l16.15-4.16,1.24-9.86c.01,2.35.39,4.53,1.14,6.5,2.46,6.45,7.33,7.42,10.02,7.42,4.63,0,8.87-2.46,12.61-7.3,2.7-3.51,4.63-7.4,5.74-11.61.63-2.47.95-4.82.95-6.99,0-2.41-.4-4.69-1.17-6.74Z"/>
      <path class="cls-2" d="M37.37,26.55c2.86,0,4.88,1.59,6.07,4.77.62,1.65.93,3.45.93,5.42s-.28,3.94-.85,6.15c-1,3.78-2.72,7.25-5.18,10.44-2.99,3.88-6.16,5.83-9.51,5.83-2.89,0-4.94-1.59-6.15-4.77-.59-1.56-.89-3.32-.89-5.26s.3-3.99.89-6.23c1-3.8,2.71-7.3,5.14-10.48,2.99-3.91,6.18-5.87,9.55-5.87ZM35.91,36.59c-1.48,0-2.99,1.21-4.53,3.64-1.24,1.91-2.1,3.79-2.59,5.62-.24.97-.36,1.85-.36,2.63,0,1.11.27,2.01.81,2.71.62.78,1.48,1.17,2.59,1.17,1.51,0,2.87-.8,4.09-2.39.97-1.27,1.67-2.76,2.1-4.49.51-2.02.62-4.02.32-5.99-.32-1.94-1.13-2.91-2.43-2.91Z"/>
      <path class="cls-1" d="M14.93,35.05c-.19.76-.35,1.49-.48,2.22l-.48,2.18,7.08-1.48-.37,5.67c-2.77.43-5.38.93-7.83,1.5-.65,3.61-1.16,7.18-1.54,10.71l-6.93,1.78,4.73-29.01,13.83-1.94-.48,7.46c-2.7.24-5.21.54-7.53.89Z"/>
    </g>
  </g>
</svg>